<svg id="eROVXUWT9ve1" xmlns="http://www.w3.org/2000/svg" xmlns:xlink="http://www.w3.org/1999/xlink" viewBox="0 0 300 112.500000" shape-rendering="geometricPrecision" text-rendering="geometricPrecision"><style><![CDATA[#eROVXUWT9ve2 {animation: eROVXUWT9ve2_c_o 3000ms linear 1 normal forwards}@keyframes eROVXUWT9ve2_c_o { 0% {opacity: 0} 16.666667% {opacity: 0.250000} 33.333333% {opacity: 0.500000} 50% {opacity: 0.750000} 66.666667% {opacity: 1} 83.333333% {opacity: 1} 100% {opacity: 1}} #eROVXUWT9ve3 {animation: eROVXUWT9ve3_c_o 3000ms linear 1 normal forwards}@keyframes eROVXUWT9ve3_c_o { 0% {opacity: 0} 16.666667% {opacity: 0.250000} 33.333333% {opacity: 0.500000} 50% {opacity: 0.750000} 66.666667% {opacity: 1} 83.333333% {opacity: 1} 100% {opacity: 1}} #eROVXUWT9ve4 {animation: eROVXUWT9ve4_c_o 3000ms linear 1 normal forwards}@keyframes eROVXUWT9ve4_c_o { 0% {opacity: 0} 16.666667% {opacity: 0.250000} 33.333333% {opacity: 0.500000} 50% {opacity: 0.750000} 66.666667% {opacity: 1} 83.333333% {opacity: 1} 100% {opacity: 1}} #eROVXUWT9ve5 {animation: eROVXUWT9ve5_c_o 3000ms linear 1 normal forwards}@keyframes eROVXUWT9ve5_c_o { 0% {opacity: 0} 16.666667% {opacity: 0.250000} 33.333333% {opacity: 0.500000} 50% {opacity: 0.750000} 66.666667% {opacity: 1} 83.333333% {opacity: 1} 100% {opacity: 1}} #eROVXUWT9ve6 {animation: eROVXUWT9ve6_c_o 3000ms linear 1 normal forwards}@keyframes eROVXUWT9ve6_c_o { 0% {opacity: 0} 16.666667% {opacity: 0.250000} 33.333333% {opacity: 0.500000} 50% {opacity: 0.750000} 66.666667% {opacity: 1} 83.333333% {opacity: 1} 100% {opacity: 1}} #eROVXUWT9ve7 {animation: eROVXUWT9ve7_c_o 3000ms linear 1 normal forwards}@keyframes eROVXUWT9ve7_c_o { 0% {opacity: 0} 16.666667% {opacity: 0.250000} 33.333333% {opacity: 0.500000} 50% {opacity: 0.750000} 66.666667% {opacity: 1} 83.333333% {opacity: 1} 100% {opacity: 1}} #eROVXUWT9ve8 {animation: eROVXUWT9ve8_c_o 3000ms linear 1 normal forwards}@keyframes eROVXUWT9ve8_c_o { 0% {opacity: 0} 16.666667% {opacity: 0.250000} 33.333333% {opacity: 0.500000} 50% {opacity: 0.750000} 66.666667% {opacity: 1} 83.333333% {opacity: 1} 100% {opacity: 1}} #eROVXUWT9ve9 {animation: eROVXUWT9ve9_c_o 3000ms linear 1 normal forwards}@keyframes eROVXUWT9ve9_c_o { 0% {opacity: 0} 16.666667% {opacity: 0.250000} 33.333333% {opacity: 0.500000} 50% {opacity: 0.750000} 66.666667% {opacity: 1} 83.333333% {opacity: 1} 100% {opacity: 1}} #eROVXUWT9ve10 {animation: eROVXUWT9ve10_c_o 3000ms linear 1 normal forwards}@keyframes eROVXUWT9ve10_c_o { 0% {opacity: 0} 16.666667% {opacity: 0.250000} 33.333333% {opacity: 0.500000} 50% {opacity: 0.750000} 66.666667% {opacity: 1} 83.333333% {opacity: 1} 100% {opacity: 1}} #eROVXUWT9ve11 {animation: eROVXUWT9ve11_c_o 3000ms linear 1 normal forwards}@keyframes eROVXUWT9ve11_c_o { 0% {opacity: 0} 16.666667% {opacity: 0.250000} 33.333333% {opacity: 0.500000} 50% {opacity: 0.750000} 66.666667% {opacity: 1} 83.333333% {opacity: 1} 100% {opacity: 1}} #eROVXUWT9ve12 {animation: eROVXUWT9ve12_c_o 3000ms linear 1 normal forwards}@keyframes eROVXUWT9ve12_c_o { 0% {opacity: 0} 16.666667% {opacity: 0.250000} 33.333333% {opacity: 0.500000} 50% {opacity: 0.750000} 66.666667% {opacity: 1} 83.333333% {opacity: 1} 100% {opacity: 1}} #eROVXUWT9ve13 {animation: eROVXUWT9ve13_c_o 3000ms linear 1 normal forwards}@keyframes eROVXUWT9ve13_c_o { 0% {opacity: 0} 16.666667% {opacity: 0.250000} 33.333333% {opacity: 0.500000} 50% {opacity: 0.750000} 66.666667% {opacity: 1} 83.333333% {opacity: 1} 100% {opacity: 1}} #eROVXUWT9ve14 {animation: eROVXUWT9ve14_c_o 3000ms linear 1 normal forwards}@keyframes eROVXUWT9ve14_c_o { 0% {opacity: 0} 16.666667% {opacity: 0.250000} 33.333333% {opacity: 0.500000} 50% {opacity: 0.750000} 66.666667% {opacity: 1} 83.333333% {opacity: 1} 100% {opacity: 1}} #eROVXUWT9ve15 {animation: eROVXUWT9ve15_c_o 3000ms linear 1 normal forwards}@keyframes eROVXUWT9ve15_c_o { 0% {opacity: 0} 16.666667% {opacity: 0.250000} 33.333333% {opacity: 0.500000} 50% {opacity: 0.750000} 66.666667% {opacity: 1} 83.333333% {opacity: 1} 100% {opacity: 1}} #eROVXUWT9ve16 {animation: eROVXUWT9ve16_c_o 3000ms linear 1 normal forwards}@keyframes eROVXUWT9ve16_c_o { 0% {opacity: 0} 16.666667% {opacity: 0.250000} 33.333333% {opacity: 0.500000} 50% {opacity: 0.750000} 66.666667% {opacity: 1} 83.333333% {opacity: 1} 100% {opacity: 1}} #eROVXUWT9ve17 {animation: eROVXUWT9ve17_c_o 3000ms linear 1 normal forwards}@keyframes eROVXUWT9ve17_c_o { 0% {opacity: 0} 16.666667% {opacity: 0.250000} 33.333333% {opacity: 0.500000} 50% {opacity: 0.750000} 66.666667% {opacity: 1} 83.333333% {opacity: 1} 100% {opacity: 1}} #eROVXUWT9ve18 {animation: eROVXUWT9ve18_c_o 3000ms linear 1 normal forwards}@keyframes eROVXUWT9ve18_c_o { 0% {opacity: 0} 16.666667% {opacity: 0.250000} 33.333333% {opacity: 0.500000} 50% {opacity: 0.750000} 66.666667% {opacity: 1} 83.333333% {opacity: 1} 100% {opacity: 1}} #eROVXUWT9ve19 {animation: eROVXUWT9ve19_c_o 3000ms linear 1 normal forwards}@keyframes eROVXUWT9ve19_c_o { 0% {opacity: 0} 16.666667% {opacity: 0.250000} 33.333333% {opacity: 0.500000} 50% {opacity: 0.750000} 66.666667% {opacity: 1} 83.333333% {opacity: 1} 100% {opacity: 1}} #eROVXUWT9ve20 {animation: eROVXUWT9ve20_c_o 3000ms linear 1 normal forwards}@keyframes eROVXUWT9ve20_c_o { 0% {opacity: 0} 16.666667% {opacity: 0.250000} 33.333333% {opacity: 0.500000} 50% {opacity: 0.750000} 66.666667% {opacity: 1} 83.333333% {opacity: 1} 100% {opacity: 1}} #eROVXUWT9ve21 {animation: eROVXUWT9ve21_c_o 3000ms linear 1 normal forwards}@keyframes eROVXUWT9ve21_c_o { 0% {opacity: 0} 16.666667% {opacity: 0.250000} 33.333333% {opacity: 0.500000} 50% {opacity: 0.750000} 66.666667% {opacity: 1} 83.333333% {opacity: 1} 100% {opacity: 1}} #eROVXUWT9ve22 {animation: eROVXUWT9ve22_c_o 3000ms linear 1 normal forwards}@keyframes eROVXUWT9ve22_c_o { 0% {opacity: 0} 16.666667% {opacity: 0.250000} 33.333333% {opacity: 0.500000} 50% {opacity: 0.750000} 66.666667% {opacity: 1} 83.333333% {opacity: 1} 100% {opacity: 1}} #eROVXUWT9ve23 {animation: eROVXUWT9ve23_c_o 3000ms linear 1 normal forwards}@keyframes eROVXUWT9ve23_c_o { 0% {opacity: 0} 16.666667% {opacity: 0.250000} 33.333333% {opacity: 0.500000} 50% {opacity: 0.750000} 66.666667% {opacity: 1} 83.333333% {opacity: 1} 100% {opacity: 1}} #eROVXUWT9ve24 {animation: eROVXUWT9ve24_c_o 3000ms linear 1 normal forwards}@keyframes eROVXUWT9ve24_c_o { 0% {opacity: 0} 16.666667% {opacity: 0.250000} 33.333333% {opacity: 0.500000} 50% {opacity: 0.750000} 66.666667% {opacity: 1} 83.333333% {opacity: 1} 100% {opacity: 1}} #eROVXUWT9ve25 {animation: eROVXUWT9ve25_c_o 3000ms linear 1 normal forwards}@keyframes eROVXUWT9ve25_c_o { 0% {opacity: 0} 16.666667% {opacity: 0.250000} 33.333333% {opacity: 0.500000} 50% {opacity: 0.750000} 66.666667% {opacity: 1} 83.333333% {opacity: 1} 100% {opacity: 1}} #eROVXUWT9ve26 {animation: eROVXUWT9ve26_c_o 3000ms linear 1 normal forwards}@keyframes eROVXUWT9ve26_c_o { 0% {opacity: 0} 16.666667% {opacity: 0.250000} 33.333333% {opacity: 0.500000} 50% {opacity: 0.750000} 66.666667% {opacity: 1} 83.333333% {opacity: 1} 100% {opacity: 1}} #eROVXUWT9ve27 {animation: eROVXUWT9ve27_c_o 3000ms linear 1 normal forwards}@keyframes eROVXUWT9ve27_c_o { 0% {opacity: 0} 16.666667% {opacity: 0.250000} 33.333333% {opacity: 0.500000} 50% {opacity: 0.750000} 66.666667% {opacity: 1} 83.333333% {opacity: 1} 100% {opacity: 1}} #eROVXUWT9ve28 {animation: eROVXUWT9ve28_c_o 3000ms linear 1 normal forwards}@keyframes eROVXUWT9ve28_c_o { 0% {opacity: 0} 16.666667% {opacity: 0.250000} 33.333333% {opacity: 0.500000} 50% {opacity: 0.750000} 66.666667% {opacity: 1} 83.333333% {opacity: 1} 100% {opacity: 1}} #eROVXUWT9ve29 {animation: eROVXUWT9ve29_c_o 3000ms linear 1 normal forwards}@keyframes eROVXUWT9ve29_c_o { 0% {opacity: 0} 16.666667% {opacity: 0.250000} 33.333333% {opacity: 0.500000} 50% {opacity: 0.750000} 66.666667% {opacity: 1} 83.333333% {opacity: 1} 100% {opacity: 1}} #eROVXUWT9ve30 {animation: eROVXUWT9ve30_c_o 3000ms linear 1 normal forwards}@keyframes eROVXUWT9ve30_c_o { 0% {opacity: 0} 16.666667% {opacity: 0.250000} 33.333333% {opacity: 0.500000} 50% {opacity: 0.750000} 66.666667% {opacity: 1} 83.333333% {opacity: 1} 100% {opacity: 1}} #eROVXUWT9ve31 {animation: eROVXUWT9ve31_c_o 3000ms linear 1 normal forwards}@keyframes eROVXUWT9ve31_c_o { 0% {opacity: 0} 16.666667% {opacity: 0.250000} 33.333333% {opacity: 0.500000} 50% {opacity: 0.750000} 66.666667% {opacity: 1} 83.333333% {opacity: 1} 100% {opacity: 1}} #eROVXUWT9ve32 {animation: eROVXUWT9ve32_c_o 3000ms linear 1 normal forwards}@keyframes eROVXUWT9ve32_c_o { 0% {opacity: 0} 16.666667% {opacity: 0.250000} 33.333333% {opacity: 0.500000} 50% {opacity: 0.750000} 66.666667% {opacity: 1} 83.333333% {opacity: 1} 100% {opacity: 1}}]]></style><defs><radialGradient id="eROVXUWT9ve3-fill" cx="0" cy="0" r="1" spreadMethod="pad" gradientUnits="userSpaceOnUse" gradientTransform="matrix(647.65499999999997 0.00000000000008 0.00000000000008 -631.53099999999995 149.27742650004802 620.03016270004446)"><stop id="eROVXUWT9ve3-fill-0" offset="0%" stop-color="rgb(0,5,13)"/><stop id="eROVXUWT9ve3-fill-1" offset="70%" stop-color="rgb(5,17,37)"/><stop id="eROVXUWT9ve3-fill-2" offset="90.450000%" stop-color="rgb(23,62,126)"/><stop id="eROVXUWT9ve3-fill-3" offset="95.500000%" stop-color="rgb(76,169,227)"/><stop id="eROVXUWT9ve3-fill-4" offset="100%" stop-color="rgb(76,169,227)"/></radialGradient><linearGradient id="eROVXUWT9ve4-fill" x1="149.856312" y1="113.547104" x2="149.856312" y2="-0.772896" spreadMethod="pad" gradientUnits="userSpaceOnUse"><stop id="eROVXUWT9ve4-fill-0" offset="0%" stop-color="rgb(8,20,46)"/><stop id="eROVXUWT9ve4-fill-1" offset="80.900000%" stop-color="rgb(23,50,110)"/><stop id="eROVXUWT9ve4-fill-2" offset="100%" stop-color="rgb(13,105,169)"/></linearGradient><linearGradient id="eROVXUWT9ve5-fill" x1="151.398363" y1="114.046651" x2="151.398363" y2="-0.284349" spreadMethod="pad" gradientUnits="userSpaceOnUse"><stop id="eROVXUWT9ve5-fill-0" offset="0%" stop-color="rgb(8,20,46)"/><stop id="eROVXUWT9ve5-fill-1" offset="80.900000%" stop-color="rgb(23,50,110)"/><stop id="eROVXUWT9ve5-fill-2" offset="100%" stop-color="rgb(13,105,169)"/></linearGradient><linearGradient id="eROVXUWT9ve6-fill" x1="175.637322" y1="94.061041" x2="175.637322" y2="14.851041" spreadMethod="pad" gradientUnits="userSpaceOnUse"><stop id="eROVXUWT9ve6-fill-0" offset="0%" stop-color="rgb(8,20,46)"/><stop id="eROVXUWT9ve6-fill-1" offset="80.900000%" stop-color="rgb(23,50,110)"/><stop id="eROVXUWT9ve6-fill-2" offset="100%" stop-color="rgb(13,105,169)"/></linearGradient><linearGradient id="eROVXUWT9ve7-fill" x1="209.435169" y1="94.445955" x2="209.435169" y2="14.180355" spreadMethod="pad" gradientUnits="userSpaceOnUse"><stop id="eROVXUWT9ve7-fill-0" offset="0%" stop-color="rgb(8,20,46)"/><stop id="eROVXUWT9ve7-fill-1" offset="80.900000%" stop-color="rgb(23,50,110)"/><stop id="eROVXUWT9ve7-fill-2" offset="100%" stop-color="rgb(13,105,169)"/></linearGradient><linearGradient id="eROVXUWT9ve8-fill" x1="214.366371" y1="91.283397" x2="214.366371" y2="17.755697" spreadMethod="pad" gradientUnits="userSpaceOnUse"><stop id="eROVXUWT9ve8-fill-0" offset="0%" stop-color="rgb(8,20,46)"/><stop id="eROVXUWT9ve8-fill-1" offset="80.900000%" stop-color="rgb(23,50,110)"/><stop id="eROVXUWT9ve8-fill-2" offset="100%" stop-color="rgb(13,105,169)"/></linearGradient><linearGradient id="eROVXUWT9ve9-fill" x1="170.132148" y1="92.349048" x2="170.132148" y2="16.345248" spreadMethod="pad" gradientUnits="userSpaceOnUse"><stop id="eROVXUWT9ve9-fill-0" offset="0%" stop-color="rgb(8,20,46)"/><stop id="eROVXUWT9ve9-fill-1" offset="80.900000%" stop-color="rgb(23,50,110)"/><stop id="eROVXUWT9ve9-fill-2" offset="100%" stop-color="rgb(13,105,169)"/></linearGradient><linearGradient id="eROVXUWT9ve10-fill" x1="201.908096" y1="94.407773" x2="201.908096" y2="14.271273" spreadMethod="pad" gradientUnits="userSpaceOnUse"><stop id="eROVXUWT9ve10-fill-0" offset="0%" stop-color="rgb(8,20,46)"/><stop id="eROVXUWT9ve10-fill-1" offset="80.900000%" stop-color="rgb(23,50,110)"/><stop id="eROVXUWT9ve10-fill-2" offset="100%" stop-color="rgb(13,105,169)"/></linearGradient><linearGradient id="eROVXUWT9ve11-fill" x1="132.654152" y1="94.348882" x2="132.654152" y2="14.229382" spreadMethod="pad" gradientUnits="userSpaceOnUse"><stop id="eROVXUWT9ve11-fill-0" offset="0%" stop-color="rgb(8,20,46)"/><stop id="eROVXUWT9ve11-fill-1" offset="80.900000%" stop-color="rgb(23,50,110)"/><stop id="eROVXUWT9ve11-fill-2" offset="100%" stop-color="rgb(13,105,169)"/></linearGradient><linearGradient id="eROVXUWT9ve12-fill" x1="167.295367" y1="94.284398" x2="167.295367" y2="14.712698" spreadMethod="pad" gradientUnits="userSpaceOnUse"><stop id="eROVXUWT9ve12-fill-0" offset="0%" stop-color="rgb(8,20,46)"/><stop id="eROVXUWT9ve12-fill-1" offset="80.900000%" stop-color="rgb(23,50,110)"/><stop id="eROVXUWT9ve12-fill-2" offset="100%" stop-color="rgb(13,105,169)"/></linearGradient><linearGradient id="eROVXUWT9ve13-fill" x1="209.574911" y1="94.410093" x2="209.574911" y2="14.255293" spreadMethod="pad" gradientUnits="userSpaceOnUse"><stop id="eROVXUWT9ve13-fill-0" offset="0%" stop-color="rgb(8,20,46)"/><stop id="eROVXUWT9ve13-fill-1" offset="80.900000%" stop-color="rgb(23,50,110)"/><stop id="eROVXUWT9ve13-fill-2" offset="100%" stop-color="rgb(13,105,169)"/></linearGradient><linearGradient id="eROVXUWT9ve14-fill" x1="182.394771" y1="94.388842" x2="182.394771" y2="14.183142" spreadMethod="pad" gradientUnits="userSpaceOnUse"><stop id="eROVXUWT9ve14-fill-0" offset="0%" stop-color="rgb(8,20,46)"/><stop id="eROVXUWT9ve14-fill-1" offset="80.900000%" stop-color="rgb(23,50,110)"/><stop id="eROVXUWT9ve14-fill-2" offset="100%" stop-color="rgb(13,105,169)"/></linearGradient><linearGradient id="eROVXUWT9ve15-fill" x1="226.145825" y1="94.274784" x2="226.145825" y2="14.139684" spreadMethod="pad" gradientUnits="userSpaceOnUse"><stop id="eROVXUWT9ve15-fill-0" offset="0%" stop-color="rgb(8,20,46)"/><stop id="eROVXUWT9ve15-fill-1" offset="80.900000%" stop-color="rgb(23,50,110)"/><stop id="eROVXUWT9ve15-fill-2" offset="100%" stop-color="rgb(13,105,169)"/></linearGradient><linearGradient id="eROVXUWT9ve16-fill" x1="148.737410" y1="93.510812" x2="148.737410" y2="15.225112" spreadMethod="pad" gradientUnits="userSpaceOnUse"><stop id="eROVXUWT9ve16-fill-0" offset="0%" stop-color="rgb(8,20,46)"/><stop id="eROVXUWT9ve16-fill-1" offset="80.900000%" stop-color="rgb(23,50,110)"/><stop id="eROVXUWT9ve16-fill-2" offset="100%" stop-color="rgb(13,105,169)"/></linearGradient><linearGradient id="eROVXUWT9ve17-fill" x1="136.211907" y1="94.383262" x2="136.211907" y2="14.786962" spreadMethod="pad" gradientUnits="userSpaceOnUse"><stop id="eROVXUWT9ve17-fill-0" offset="0%" stop-color="rgb(8,20,46)"/><stop id="eROVXUWT9ve17-fill-1" offset="80.900000%" stop-color="rgb(23,50,110)"/><stop id="eROVXUWT9ve17-fill-2" offset="100%" stop-color="rgb(13,105,169)"/></linearGradient><linearGradient id="eROVXUWT9ve18-fill" x1="75.832130" y1="94.338303" x2="75.832130" y2="14.206703" spreadMethod="pad" gradientUnits="userSpaceOnUse"><stop id="eROVXUWT9ve18-fill-0" offset="0%" stop-color="rgb(8,20,46)"/><stop id="eROVXUWT9ve18-fill-1" offset="80.900000%" stop-color="rgb(23,50,110)"/><stop id="eROVXUWT9ve18-fill-2" offset="100%" stop-color="rgb(13,105,169)"/></linearGradient><linearGradient id="eROVXUWT9ve19-fill" x1="111.644870" y1="94.405912" x2="111.644870" y2="14.291412" spreadMethod="pad" gradientUnits="userSpaceOnUse"><stop id="eROVXUWT9ve19-fill-0" offset="0%" stop-color="rgb(8,20,46)"/><stop id="eROVXUWT9ve19-fill-1" offset="80.900000%" stop-color="rgb(23,50,110)"/><stop id="eROVXUWT9ve19-fill-2" offset="100%" stop-color="rgb(13,105,169)"/></linearGradient><linearGradient id="eROVXUWT9ve20-fill" x1="101.264689" y1="94.304282" x2="101.264689" y2="14.169882" spreadMethod="pad" gradientUnits="userSpaceOnUse"><stop id="eROVXUWT9ve20-fill-0" offset="0%" stop-color="rgb(8,20,46)"/><stop id="eROVXUWT9ve20-fill-1" offset="80.900000%" stop-color="rgb(23,50,110)"/><stop id="eROVXUWT9ve20-fill-2" offset="100%" stop-color="rgb(13,105,169)"/></linearGradient><linearGradient id="eROVXUWT9ve21-fill" x1="103.169254" y1="94.426843" x2="103.169254" y2="14.252243" spreadMethod="pad" gradientUnits="userSpaceOnUse"><stop id="eROVXUWT9ve21-fill-0" offset="0%" stop-color="rgb(8,20,46)"/><stop id="eROVXUWT9ve21-fill-1" offset="80.900000%" stop-color="rgb(23,50,110)"/><stop id="eROVXUWT9ve21-fill-2" offset="100%" stop-color="rgb(13,105,169)"/></linearGradient><linearGradient id="eROVXUWT9ve22-fill" x1="193.535616" y1="92.831055" x2="193.535616" y2="14.400455" spreadMethod="pad" gradientUnits="userSpaceOnUse"><stop id="eROVXUWT9ve22-fill-0" offset="0%" stop-color="rgb(8,20,46)"/><stop id="eROVXUWT9ve22-fill-1" offset="80.900000%" stop-color="rgb(23,50,110)"/><stop id="eROVXUWT9ve22-fill-2" offset="100%" stop-color="rgb(13,105,169)"/></linearGradient><linearGradient id="eROVXUWT9ve23-fill" x1="157.676498" y1="94.306851" x2="157.676498" y2="14.181351" spreadMethod="pad" gradientUnits="userSpaceOnUse"><stop id="eROVXUWT9ve23-fill-0" offset="0%" stop-color="rgb(8,20,46)"/><stop id="eROVXUWT9ve23-fill-1" offset="80.900000%" stop-color="rgb(23,50,110)"/><stop id="eROVXUWT9ve23-fill-2" offset="100%" stop-color="rgb(13,105,169)"/></linearGradient><linearGradient id="eROVXUWT9ve24-fill" x1="136.848046" y1="91.564302" x2="136.848046" y2="15.863702" spreadMethod="pad" gradientUnits="userSpaceOnUse"><stop id="eROVXUWT9ve24-fill-0" offset="0%" stop-color="rgb(8,20,46)"/><stop id="eROVXUWT9ve24-fill-1" offset="80.900000%" stop-color="rgb(23,50,110)"/><stop id="eROVXUWT9ve24-fill-2" offset="100%" stop-color="rgb(13,105,169)"/></linearGradient><linearGradient id="eROVXUWT9ve25-fill" x1="139.482075" y1="94.341282" x2="139.482075" y2="14.207082" spreadMethod="pad" gradientUnits="userSpaceOnUse"><stop id="eROVXUWT9ve25-fill-0" offset="0%" stop-color="rgb(8,20,46)"/><stop id="eROVXUWT9ve25-fill-1" offset="80.900000%" stop-color="rgb(23,50,110)"/><stop id="eROVXUWT9ve25-fill-2" offset="100%" stop-color="rgb(13,105,169)"/></linearGradient><linearGradient id="eROVXUWT9ve26-fill" x1="95.497245" y1="94.370261" x2="95.497245" y2="14.233061" spreadMethod="pad" gradientUnits="userSpaceOnUse"><stop id="eROVXUWT9ve26-fill-0" offset="0%" stop-color="rgb(8,20,46)"/><stop id="eROVXUWT9ve26-fill-1" offset="80.900000%" stop-color="rgb(23,50,110)"/><stop id="eROVXUWT9ve26-fill-2" offset="100%" stop-color="rgb(13,105,169)"/></linearGradient><linearGradient id="eROVXUWT9ve28-fill" x1="117.357321" y1="139.017093" x2="82.699421" y2="9.673093" spreadMethod="pad" gradientUnits="userSpaceOnUse"><stop id="eROVXUWT9ve28-fill-0" offset="0%" stop-color="rgb(178,177,177)"/><stop id="eROVXUWT9ve28-fill-1" offset="35%" stop-color="rgb(222,221,222)"/><stop id="eROVXUWT9ve28-fill-2" offset="65%" stop-color="rgb(222,221,222)"/><stop id="eROVXUWT9ve28-fill-3" offset="100%" stop-color="rgb(178,177,177)"/></linearGradient><linearGradient id="eROVXUWT9ve29-fill" x1="208.099096" y1="68.382380" x2="173.602096" y2="-60.362620" spreadMethod="pad" gradientUnits="userSpaceOnUse"><stop id="eROVXUWT9ve29-fill-0" offset="0%" stop-color="rgb(178,177,177)"/><stop id="eROVXUWT9ve29-fill-1" offset="35%" stop-color="rgb(222,221,222)"/><stop id="eROVXUWT9ve29-fill-2" offset="65%" stop-color="rgb(222,221,222)"/><stop id="eROVXUWT9ve29-fill-3" offset="100%" stop-color="rgb(178,177,177)"/></linearGradient><linearGradient id="eROVXUWT9ve30-fill" x1="150.271439" y1="-1.753758" x2="150.271439" y2="113.156242" spreadMethod="pad" gradientUnits="userSpaceOnUse"><stop id="eROVXUWT9ve30-fill-0" offset="0%" stop-color="rgb(255,255,255)"/><stop id="eROVXUWT9ve30-fill-1" offset="55.220000%" stop-color="rgb(255,255,255)"/><stop id="eROVXUWT9ve30-fill-2" offset="69.100000%" stop-color="rgb(250,250,250)"/><stop id="eROVXUWT9ve30-fill-3" offset="80%" stop-color="rgb(211,210,210)"/><stop id="eROVXUWT9ve30-fill-4" offset="100%" stop-color="rgb(189,188,188)"/></linearGradient><linearGradient id="eROVXUWT9ve31-fill" x1="173.487088" y1="35.346556" x2="173.487088" y2="92.334656" spreadMethod="pad" gradientUnits="userSpaceOnUse"><stop id="eROVXUWT9ve31-fill-0" offset="0%" stop-color="rgb(255,255,255)"/><stop id="eROVXUWT9ve31-fill-1" offset="55.220000%" stop-color="rgb(255,255,255)"/><stop id="eROVXUWT9ve31-fill-2" offset="69.100000%" stop-color="rgb(239,238,238)"/><stop id="eROVXUWT9ve31-fill-3" offset="80%" stop-color="rgb(233,233,233)"/><stop id="eROVXUWT9ve31-fill-4" offset="100%" stop-color="rgb(211,210,210)"/></linearGradient><linearGradient id="eROVXUWT9ve32-fill" x1="128.177019" y1="13.724986" x2="128.177019" y2="92.777886" spreadMethod="pad" gradientUnits="userSpaceOnUse"><stop id="eROVXUWT9ve32-fill-0" offset="0%" stop-color="rgb(255,255,255)"/><stop id="eROVXUWT9ve32-fill-1" offset="55.220000%" stop-color="rgb(255,255,255)"/><stop id="eROVXUWT9ve32-fill-2" offset="69.100000%" stop-color="rgb(239,238,238)"/><stop id="eROVXUWT9ve32-fill-3" offset="80%" stop-color="rgb(233,233,233)"/><stop id="eROVXUWT9ve32-fill-4" offset="100%" stop-color="rgb(211,210,210)"/></linearGradient></defs><path id="eROVXUWT9ve2" d="M299.100000,51.900000C299.200000,52.200000,299.200000,52.400000,299.200000,52.700000C299.200000,52.400000,299.100000,52.200000,299.100000,51.900000M150,0C66.700000,0,0,25,0,56.200000C0,87.300000,67.300000,112.400000,150,112.400000C232.700000,112.400000,300,87.200000,300,56.200000C300,25.200000,232.700000,0,150,0" opacity="0" fill="rgb(211,210,210)" stroke="none" stroke-width="1"/><path id="eROVXUWT9ve3" d="M2.300000,56.200000C2.300000,86,68.400000,110.200000,150,110.200000L150,110.200000C231.600000,110.200000,297.700000,86.100000,297.700000,56.200000L297.700000,56.200000C297.700000,26.400000,231.600000,2.200000,150,2.200000L150,2.200000C68.400000,2.200000,2.300000,26.400000,2.300000,56.200000" opacity="0" fill="url(#eROVXUWT9ve3-fill)" stroke="none" stroke-width="1"/><path id="eROVXUWT9ve4" d="M13.400000,56.200000C13.400000,58.200000,13.800000,60.200000,14.600000,62.200000L14.600000,62.200000C14.300000,60.900000,14.100000,59.600000,14.100000,58.300000L14.100000,58.300000C14.100000,33.600000,75.200000,13.600000,150.700000,13.600000L150.700000,13.600000C220.100000,13.600000,277.400000,30.500000,286.100000,52.500000L286.100000,52.500000C280.300000,29.400000,221.600000,11.300000,150,11.300000L150,11.300000C74.600000,11.200000,13.400000,31.400000,13.400000,56.200000" opacity="0" fill="url(#eROVXUWT9ve4-fill)" stroke="none" stroke-width="1"/><path id="eROVXUWT9ve5" d="M291.500000,56.200000C291.500000,83.400000,228.100000,105.500000,150,105.500000L150,105.500000C80.400000,105.500000,22.600000,88,10.700000,65L10.700000,65C19.800000,89,79.100000,107.500000,151,107.500000L151,107.500000C229.200000,107.500000,292.500000,85.600000,292.500000,58.700000L292.500000,58.700000C292.500000,56,291.800000,53.300000,290.600000,50.700000L290.600000,50.700000C291.200000,52.400000,291.500000,54.300000,291.500000,56.200000" opacity="0" fill="url(#eROVXUWT9ve5-fill)" stroke="none" stroke-width="1"/><path id="eROVXUWT9ve6" d="M176.400000,61C173.200000,64.300000,173,68.600000,175.100000,70.500000L175.100000,70.500000C175.800000,71.200000,176.700000,71.500000,177.600000,71.600000L177.600000,71.600000C176.200000,69.900000,175.600000,66.500000,177.300000,63.900000L177.300000,63.900000C177,63.100000,176.900000,62.200000,177.100000,61.300000L177.100000,61.300000C177.100000,61.100000,177,60.900000,176.800000,60.900000L176.800000,60.900000C176.600000,60.800000,176.500000,60.900000,176.400000,61" opacity="0" fill="url(#eROVXUWT9ve6-fill)" stroke="none" stroke-width="1"/><path id="eROVXUWT9ve7" d="M209.100000,68C209.100000,68.500000,209.300000,69.400000,209.400000,70.100000L209.400000,70.100000C209.600000,69.800000,209.700000,69.500000,209.900000,69.100000L209.900000,69.100000C210,68.800000,210,68.800000,209.800000,68.700000L209.800000,68.700000C209.500000,68.600000,209.100000,68.300000,209.100000,68.100000L209.100000,68.100000C209,68.100000,209,68.100000,209.100000,68L209.100000,68L209.100000,68L209.100000,68Z" opacity="0" fill="url(#eROVXUWT9ve7-fill)" stroke="none" stroke-width="1"/><path id="eROVXUWT9ve8" d="M212.900000,57.200000C214,58.200000,214.600000,59.400000,214.700000,60.600000L214.700000,60.600000C214.700000,61.100000,215.200000,61.200000,215.500000,60.700000L215.500000,60.700000C215.600000,60.600000,215.700000,60.400000,215.800000,60.200000L215.800000,60.200000C215.700000,60.100000,215.600000,60,215.500000,59.800000L215.500000,59.800000C215.100000,59.300000,214,58.200000,212.900000,57.200000L212.900000,57.200000Z" opacity="0" fill="url(#eROVXUWT9ve8-fill)" stroke="none" stroke-width="1"/><path id="eROVXUWT9ve9" d="M169,55.200000C169.800000,56.400000,170.200000,58,170.200000,60.100000L170.200000,60.100000C170.200000,60.600000,170.600000,60.600000,170.800000,60.200000L170.800000,60.200000C170.900000,60,171.100000,59.800000,171.200000,59.600000L171.200000,59.600000C170.700000,57.700000,169.700000,55.900000,169,55.200000Z" opacity="0" fill="url(#eROVXUWT9ve9-fill)" stroke="none" stroke-width="1"/><path id="eROVXUWT9ve10" d="M198.300000,66.200000C195.300000,69.800000,193.700000,73.500000,193.700000,77.100000L193.700000,77.100000C193.700000,78.400000,194.200000,80,195.300000,80.500000L195.300000,80.500000C195.700000,80.700000,196,80.800000,196.400000,80.900000L196.400000,80.900000C196.300000,80.400000,196.200000,79.900000,196.200000,79.500000L196.200000,79.500000C196.200000,75.800000,197.300000,72.100000,200.300000,68.400000L200.300000,68.400000C203.900000,64,207.700000,61.800000,210.300000,63L210.300000,63C210.200000,62,209.700000,61.200000,208.600000,60.700000L208.600000,60.700000C208.100000,60.500000,207.600000,60.400000,207,60.400000L207,60.400000C204.400000,60.400000,201.200000,62.600000,198.300000,66.200000" opacity="0" fill="url(#eROVXUWT9ve10-fill)" stroke="none" stroke-width="1"/><path id="eROVXUWT9ve11" d="M138.900000,58.500000C134.900000,60,130.900000,62.400000,128.100000,66.100000L128.100000,66.100000C124.900000,70.300000,124.100000,75.400000,126.200000,78.400000L126.200000,78.400000C126.700000,79.100000,127.300000,79.600000,128,79.900000L128,79.900000C126.900000,76.400000,127.700000,71.700000,130.400000,68.100000L130.400000,68.100000C133.200000,64.400000,136.300000,63,139.800000,61.400000L139.800000,61.400000C140.300000,61.200000,140.300000,60.900000,140.200000,60.500000L140.200000,60.500000C140,59.800000,139.600000,58,139.400000,57.600000L139.400000,57.600000L139.400000,57.600000C139.500000,58.100000,139.400000,58.400000,138.900000,58.500000" opacity="0" fill="url(#eROVXUWT9ve11-fill)" stroke="none" stroke-width="1"/><path id="eROVXUWT9ve12" d="M168.900000,69.800000C165.200000,75.500000,161.700000,81,158,86.800000L158,86.800000C157.800000,87.100000,157.600000,87.200000,157.300000,87.300000L157.300000,87.300000C155,87.300000,152.500000,87.300000,150,87.300000L150,87.300000C149.700000,87.300000,149.600000,87.200000,149.500000,87L149.500000,87C149.700000,87.900000,150,89.500000,150.100000,89.900000L150.100000,89.900000C150.200000,90.200000,150.400000,90.300000,150.600000,90.300000L150.600000,90.300000C153.300000,90.300000,156.600000,90.300000,158.900000,90.300000L158.900000,90.300000C159.200000,90.300000,159.500000,90.100000,159.600000,89.800000L159.600000,89.800000C163,84.500000,166.600000,78.800000,170,73.500000L170,73.500000C170.800000,76.200000,171.100000,77.400000,172.600000,78.700000L172.600000,78.700000C174,80,175.300000,80.300000,177.300000,80.300000L177.300000,80.300000C179.100000,80.300000,180.800000,79.600000,182.900000,78.700000L182.900000,78.700000C183.700000,78.400000,184.300000,78,184.900000,77.600000L184.900000,77.600000C184.900000,76.600000,185,75.600000,185.200000,74.700000L185.200000,74.700000C185.200000,74.600000,185.100000,74,184.600000,74.300000L184.600000,74.300000C183.600000,75,182.400000,75.700000,180.800000,76.300000L180.800000,76.300000C178.900000,77,178,77.300000,176.200000,77.300000L176.200000,77.300000C174,77.300000,172,76.300000,170.600000,74.100000L170.600000,74.100000C169.800000,72.900000,169.500000,71.100000,169.400000,69.800000L169.400000,69.800000C169.400000,69.700000,169.300000,69.600000,169.200000,69.600000L169.200000,69.600000C169.100000,69.700000,169,69.700000,168.900000,69.800000" opacity="0" fill="url(#eROVXUWT9ve12-fill)" stroke="none" stroke-width="1"/><path id="eROVXUWT9ve13" d="M233.300000,72.800000C229.700000,77.200000,225.800000,81.300000,222,84.200000L222,84.200000C216.100000,88.800000,210.300000,89.900000,207.400000,87L207.400000,87C206.300000,85.900000,205.700000,84.400000,205.700000,83L205.700000,83C205.700000,82.300000,205.300000,82.300000,205,82.600000L205,82.600000C201.500000,86,195.500000,89.800000,190,87.100000L190,87.100000C187.300000,85.700000,185.800000,83.200000,185.200000,80.400000L185.200000,80.400000C185.500000,82.400000,186,85.300000,186.900000,87.100000L186.900000,87.100000C187.500000,88.300000,188.900000,89.700000,189.800000,90.100000L189.800000,90.100000C194.700000,92.500000,201.600000,89.800000,206.100000,85.500000L206.100000,85.500000C206.100000,85.400000,206.200000,85.400000,206.200000,85.400000L206.200000,85.400000C206.400000,86.200000,206.700000,87.100000,206.700000,87.200000L206.700000,87.200000C207,88.200000,207.500000,89.100000,207.900000,89.600000L207.900000,89.600000C211,93.100000,217.400000,91.500000,224.200000,86.300000L224.200000,86.300000C228,83.400000,230.800000,80.500000,234.200000,76.500000L234.200000,76.500000C234.300000,76.300000,234.300000,76.100000,234.300000,75.700000L234.300000,75.700000C234.100000,74.800000,233.800000,73.300000,233.600000,72.500000L233.600000,72.500000C233.400000,72.500000,233.400000,72.700000,233.300000,72.800000M185.100000,80.200000C185.100000,80.300000,185.100000,80.400000,185.100000,80.400000L185.100000,80.400000C185.100000,80.400000,185.100000,80.300000,185.100000,80.200000L185.100000,80.200000C185.100000,80.300000,185.100000,80.200000,185.100000,80.200000L185.100000,80.200000Z" opacity="0" fill="url(#eROVXUWT9ve13-fill)" stroke="none" stroke-width="1"/><path id="eROVXUWT9ve14" d="M186.800000,60.700000C186.500000,62.900000,185.300000,64.800000,183.300000,65.800000L183.300000,65.800000C181.600000,66.600000,179.600000,66.500000,178.200000,65.200000L178.200000,65.200000C177.800000,64.800000,177.500000,64.300000,177.200000,63.800000L177.200000,63.800000C177.600000,65.400000,177.900000,66.600000,178.300000,67.300000L178.300000,67.300000C179.600000,69.300000,181.900000,69.800000,184.400000,68.400000L184.400000,68.400000C186.200000,67.400000,187.800000,65.300000,187.600000,62L187.600000,62C187.500000,60.300000,187,58.600000,186.200000,57.200000L186.200000,57.200000C186.800000,58.300000,187,59.500000,186.800000,60.700000" opacity="0" fill="url(#eROVXUWT9ve14-fill)" stroke="none" stroke-width="1"/><path id="eROVXUWT9ve15" d="M238.100000,40.100000C237,42.100000,215,75.500000,213.600000,79L213.600000,79C213.200000,80.100000,213.100000,80.900000,213.600000,81.500000L213.600000,81.500000C214.100000,82.100000,214.700000,82.300000,215.500000,82.300000L215.500000,82.300000C215.600000,81.900000,215.700000,81.400000,215.900000,80.900000L215.900000,80.900000C217.300000,77.400000,237.900000,46.200000,239,44.200000L239,44.200000C239.100000,44,239.100000,43.800000,239,43.700000L239,43.700000C238.900000,43.400000,238.200000,40.100000,238.200000,39.800000L238.200000,39.800000C238.200000,39.900000,238.200000,40,238.100000,40.100000" opacity="0" fill="url(#eROVXUWT9ve15-fill)" stroke="none" stroke-width="1"/><path id="eROVXUWT9ve16" d="M146.900000,55.700000C147,55.800000,147,55.800000,147.100000,55.900000L147.100000,55.900000C148.400000,57.900000,149.100000,60.600000,149.200000,63.500000L149.200000,63.500000C149.300000,64.100000,149.500000,64.100000,149.800000,63.800000L149.800000,63.800000C150.100000,63.500000,150.300000,63.200000,150.600000,63L150.600000,63C150.200000,61.500000,149.600000,60.100000,149,58.800000L149,58.800000C148.800000,58.200000,147.800000,56.500000,146.900000,55.700000Z" opacity="0" fill="url(#eROVXUWT9ve16-fill)" stroke="none" stroke-width="1"/><path id="eROVXUWT9ve17" d="M158.100000,62.300000C153.400000,65.900000,149.400000,71.500000,147.400000,74L147.400000,74C146.200000,75.500000,145.100000,77.600000,142,81L142,81C137.100000,86.300000,130.600000,89.400000,124.400000,87.200000L124.400000,87.200000C121,86.100000,118.500000,83.300000,117.600000,79.900000L117.600000,79.900000C117.400000,79.200000,117,79.100000,116.700000,79.500000L116.700000,79.500000C115.700000,80.800000,113.600000,82.600000,111.900000,83.800000L111.900000,83.800000C111.700000,83.900000,111.200000,84.200000,110.800000,84L110.800000,84C110.400000,83.800000,109.200000,82,108.900000,81.500000L108.900000,81.500000C108.900000,81.400000,108.800000,81.400000,108.800000,81.300000L108.800000,81.300000L108.800000,81.300000C109.200000,83.500000,109.300000,83.800000,109.900000,84.800000L109.900000,84.800000C110.600000,85.900000,111.300000,86.700000,111.400000,86.800000L111.400000,86.800000C111.800000,87,112.200000,86.800000,112.400000,86.700000L112.400000,86.700000C113.700000,86,116.300000,84,117.500000,82.600000L117.500000,82.600000C117.800000,82.300000,118.200000,82.500000,118.300000,82.800000L118.300000,82.800000C118.800000,84.300000,119.500000,85.400000,120.200000,86.700000L120.200000,86.700000C121,88.100000,122.700000,89.500000,124.900000,90.100000L124.900000,90.100000C127.700000,90.900000,130.800000,91,134.800000,89.500000L134.800000,89.500000C138,88.300000,141.400000,85.800000,144,82.900000L144,82.900000C147.100000,79.500000,148.200000,77.400000,149.400000,75.900000L149.400000,75.900000C151.400000,73.400000,154.600000,69,159,65.200000L159,65.200000C160.500000,63.900000,162.200000,63,163.300000,63.400000L163.300000,63.400000C163.900000,61.800000,163.600000,60.900000,163,60.400000L163,60.400000C162.800000,60.300000,162.500000,60.200000,162.200000,60.200000L162.200000,60.200000C161,60.400000,159.500000,61.300000,158.100000,62.300000" opacity="0" fill="url(#eROVXUWT9ve17-fill)" stroke="none" stroke-width="1"/><path id="eROVXUWT9ve18" d="M79.300000,57.800000C76.600000,59.200000,73.400000,61.500000,71.800000,64.700000L71.800000,64.700000C70.500000,67.300000,70.300000,70.400000,72.200000,73.400000L72.200000,73.400000C72.400000,73.600000,72.500000,73.900000,72.700000,74.100000L72.700000,74.100000C72.100000,71.600000,72.800000,69,73.700000,67L73.700000,67C75.300000,63.800000,77.500000,62.300000,79.700000,60.900000L79.700000,60.900000C80.600000,60.300000,81.100000,59.700000,80.500000,58.200000L80.500000,58.200000C80.300000,57.800000,80.200000,57,80.100000,56.300000L80.100000,56.300000C80.200000,56.900000,79.900000,57.500000,79.300000,57.800000" opacity="0" fill="url(#eROVXUWT9ve18-fill)" stroke="none" stroke-width="1"/><path id="eROVXUWT9ve19" d="M99.400000,25.900000C91.700000,28.800000,88.300000,34.900000,89.900000,39L89.900000,39C90.200000,39.800000,90.700000,40.400000,91.400000,40.800000L91.400000,40.800000C90.900000,37,93.700000,30.900000,101.100000,28.400000L101.100000,28.400000C110.800000,25.200000,121.600000,27.200000,130.300000,29.100000L130.300000,29.100000C131.500000,28.300000,132.600000,27.800000,133.600000,27.200000L133.600000,27.200000C134.100000,26.900000,133.500000,26.600000,133.400000,26.600000L133.400000,26.600000C126.500000,25.300000,119.300000,23.700000,112.300000,23.700000L112.300000,23.700000C107.900000,23.700000,103.600000,24.300000,99.400000,25.900000" opacity="0" fill="url(#eROVXUWT9ve19-fill)" stroke="none" stroke-width="1"/><path id="eROVXUWT9ve20" d="M131.700000,48.800000C128.200000,49,122.800000,49.500000,119.100000,50L119.100000,50C118.200000,50.100000,118.100000,50.300000,117.900000,50.600000L117.900000,50.600000C112,60.300000,105.800000,70.700000,98.900000,77.700000L98.900000,77.700000C91.500000,85.200000,85.400000,87.200000,78.900000,87.200000L78.900000,87.200000C71.400000,87.300000,64.700000,83,63,75.500000L63,75.500000C63.900000,79.700000,66.600000,84.700000,69.700000,86.900000L69.700000,86.900000C72.900000,89.100000,76,89.900000,79.600000,89.900000L79.600000,89.900000C87,90,93.800000,87,101,79.700000L101,79.700000C107.900000,72.700000,113.900000,62.900000,119.700000,53.200000L119.700000,53.200000C119.900000,52.900000,120.100000,52.700000,121.100000,52.600000L121.100000,52.600000C124.800000,52.100000,128.100000,51.900000,131.400000,51.600000L131.400000,51.600000C132.400000,51.500000,133.100000,51.400000,133.500000,51.800000L133.500000,51.800000C134.700000,53,136,54.100000,137,54.600000L137,54.600000C137.600000,54.600000,138.100000,54.700000,138.500000,55.100000L138.500000,55.100000C138.900000,55,139.200000,54.800000,139.500000,54.600000L139.500000,54.600000C139.900000,54.200000,139.900000,53.700000,139.900000,53.300000L139.900000,53.300000C139.800000,52.500000,139.500000,50.900000,139.300000,50.500000L139.300000,50.500000C139.500000,50.800000,139.400000,51.300000,139,51.700000L139,51.700000C138.700000,52,138.300000,52.300000,137.800000,52.300000L137.800000,52.300000C137.400000,52.300000,137.100000,52.100000,136.600000,51.900000L136.600000,51.900000C135.500000,51.300000,134.100000,50.300000,133.200000,49.200000L133.200000,49.200000C133,48.900000,132.800000,48.800000,132.400000,48.800000L132.400000,48.800000C132,48.700000,131.900000,48.800000,131.700000,48.800000" opacity="0" fill="url(#eROVXUWT9ve20-fill)" stroke="none" stroke-width="1"/><path id="eROVXUWT9ve21" d="M99.900000,54.600000C99.100000,55.200000,97.900000,55.100000,97.400000,54.300000L97.400000,54.300000C97.200000,54,97.100000,53.700000,97.100000,53.500000L97.100000,53.500000C97,54.800000,97.500000,56.600000,97.900000,57.200000L97.900000,57.200000C98.300000,57.900000,99.600000,58.200000,100.600000,57.500000L100.600000,57.500000C102.800000,55.800000,104.900000,54.900000,107.100000,54.400000L107.100000,54.400000C107.700000,53.600000,108.300000,52.700000,109,51.700000L109,51.700000C109.100000,51.600000,109.100000,51.500000,109,51.500000L109,51.500000C109,51.400000,108.900000,51.400000,108.700000,51.400000L108.700000,51.400000C105.600000,51.500000,102.700000,52.500000,99.900000,54.600000" opacity="0" fill="url(#eROVXUWT9ve21-fill)" stroke="none" stroke-width="1"/><path id="eROVXUWT9ve22" d="M193.500000,23.800000C193.500000,23.900000,193.600000,23.900000,193.600000,24L193.600000,24C193.600000,23.900000,193.600000,23.800000,193.500000,23.800000Z" opacity="0" fill="url(#eROVXUWT9ve22-fill)" stroke="none" stroke-width="1"/><path id="eROVXUWT9ve23" d="M193.900000,25.200000C193.800000,27.300000,192.100000,29.400000,188,31.600000L188,31.600000C183.300000,34.200000,178.500000,34.900000,173.400000,35L173.400000,35C161.100000,35.100000,149.600000,30.300000,137.800000,27.700000L137.800000,27.700000C137.800000,28.200000,137.900000,28.800000,137.500000,29.200000L137.500000,29.200000C130.900000,34.100000,125,39,121,45.900000L121,45.900000C120.900000,46.100000,120.900000,46.200000,121.200000,46.200000L121.200000,46.200000C122.300000,46.100000,123.300000,46.100000,124.300000,46L124.300000,46C127.900000,40.300000,131.800000,37.100000,137.700000,32.700000L137.700000,32.700000C138.100000,32.400000,138.600000,32.100000,138.400000,30.900000L138.400000,30.900000C150.300000,33.500000,159.300000,37.900000,174.700000,38L174.700000,38C179.300000,38,185.700000,36.500000,189.200000,34.400000L189.200000,34.400000C193.200000,32,194.300000,30.200000,194.400000,28.400000L194.400000,28.400000C194.400000,27.800000,194.300000,26.900000,194.200000,26.500000L194.200000,26.500000C194.100000,25.900000,194,25.100000,193.800000,24.500000L193.800000,24.500000C193.900000,24.600000,193.900000,24.900000,193.900000,25.200000" opacity="0" fill="url(#eROVXUWT9ve23-fill)" stroke="none" stroke-width="1"/><path id="eROVXUWT9ve24" d="M136.600000,39.700000C136.500000,39.800000,136.300000,40,136.100000,40.100000L136.100000,40.100000C134.900000,41.300000,134.600000,42.900000,134.700000,44.100000L134.700000,44.100000C134.800000,44.600000,135,44.700000,135.200000,44.600000L135.200000,44.600000C135.400000,44.600000,135.700000,44.500000,135.900000,44.400000L135.900000,44.400000C136,43.700000,136.300000,43.100000,136.900000,42.500000L136.900000,42.500000C137.400000,42.100000,138,41.900000,138.500000,42L138.500000,42C139,41.100000,139.100000,40,138.500000,39.500000L138.500000,39.500000C138.300000,39.300000,138,39.200000,137.600000,39.200000L137.600000,39.200000C137.400000,39.300000,137,39.400000,136.600000,39.700000" opacity="0" fill="url(#eROVXUWT9ve24-fill)" stroke="none" stroke-width="1"/><path id="eROVXUWT9ve25" d="M141.300000,43.900000C140.200000,46.100000,138.300000,47.200000,136.500000,47.800000L136.500000,47.800000C136.500000,47.800000,136.100000,47.900000,136.200000,48.200000L136.200000,48.200000C136.200000,48.600000,137.500000,49.400000,138.300000,49.900000L138.300000,49.900000C138.400000,49.900000,138.600000,49.800000,138.600000,49.800000L138.600000,49.800000C139.500000,49.400000,141,48.500000,141.900000,46.600000L141.900000,46.600000C142.500000,45.400000,142.800000,44.400000,142.500000,42.200000L142.500000,42.200000C142.300000,40.700000,142,39.300000,141.600000,38.700000L141.600000,38.700000C142.500000,40.300000,142.200000,42.300000,141.300000,43.900000" opacity="0" fill="url(#eROVXUWT9ve25-fill)" stroke="none" stroke-width="1"/><path id="eROVXUWT9ve26" d="M108.500000,33.800000C108.700000,34.300000,108.700000,35.200000,108.300000,36.200000L108.300000,36.200000C105,43.900000,98.800000,49.900000,91.200000,50.200000L91.200000,50.200000C86.600000,50.300000,83.200000,48,81.600000,44.600000L81.600000,44.600000C82.800000,47.200000,85.200000,49.500000,87.300000,50.800000L87.300000,50.800000C88.900000,51.800000,91,52.400000,93.300000,52.300000L93.300000,52.300000C101.200000,52,107.200000,45.500000,109.200000,40L109.200000,40C109.700000,38.500000,109.300000,36.900000,109.100000,35.900000L109.100000,35.900000C108.900000,35.400000,108.800000,34.500000,108.500000,33.800000L108.500000,33.800000L108.500000,33.800000Z" opacity="0" fill="url(#eROVXUWT9ve26-fill)" stroke="none" stroke-width="1"/><path id="eROVXUWT9ve27" d="M299.100000,51.900000C299.200000,52.200000,299.200000,52.400000,299.200000,52.700000C299.200000,52.400000,299.100000,52.200000,299.100000,51.900000M1,56.900000C1,50.300000,3.900000,43.800000,10,37.600000C31.500000,15.900000,87.700000,1.300000,149.700000,1C231.900000,0.700000,298.800000,25.200000,299,55.600000C299,62.200000,296,68.600000,289.900000,74.800000C268.400000,96.500000,212.300000,111.200000,150.300000,111.400000C68.100000,111.800000,1.200000,87.300000,1,56.900000M150,0C66.700000,0,0,25,0,56.200000C0,87.300000,67.300000,112.400000,150,112.400000C232.700000,112.400000,300,87.200000,300,56.200000C300,25.200000,232.700000,0,150,0" opacity="0" fill="rgb(79,76,77)" stroke="none" stroke-width="1"/><path id="eROVXUWT9ve28" d="M0.500000,56.200000C0.500000,57.700000,0.700000,59.100000,1,60.600000L1,60.600000C0.800000,59.400000,0.600000,58.100000,0.600000,56.900000L0.600000,56.900000C0.600000,50.200000,3.600000,43.500000,9.700000,37.300000L9.700000,37.300000C31.300000,15.500000,87.600000,0.800000,149.700000,0.600000L149.700000,0.600000C158.300000,0.600000,166.800000,0.800000,175,1.300000L175,1.300000C166.900000,0.800000,158.500000,0.500000,150,0.500000L150,0.500000C67.100000,0.500000,0.500000,25.300000,0.500000,56.200000" opacity="0" fill="url(#eROVXUWT9ve28-fill)" stroke="none" stroke-width="1"/><path id="eROVXUWT9ve29" d="M299.400000,55.600000C299.400000,62.300000,296.300000,68.900000,290.100000,75.100000L290.100000,75.100000C268.600000,96.800000,212.300000,111.600000,150.200000,111.900000L150.200000,111.900000C141.400000,111.900000,132.800000,111.700000,124.400000,111.200000L124.400000,111.200000C132.700000,111.700000,141.200000,112,149.900000,112L149.900000,112C232.400000,112,299.400000,86.800000,299.400000,56.200000L299.400000,56.200000C299.400000,55,299.300000,53.900000,299.100000,52.700000L299.100000,52.700000C299.400000,53.700000,299.400000,54.700000,299.400000,55.600000" opacity="0" fill="url(#eROVXUWT9ve29-fill)" stroke="none" stroke-width="1"/><path id="eROVXUWT9ve30" d="M8.400000,56.200000C8.400000,83.400000,71.800000,105.500000,149.900000,105.500000L149.900000,105.500000C228.100000,105.500000,291.400000,83.400000,291.400000,56.200000L291.400000,56.200000C291.500000,29,228.200000,7,150,7L150,7C71.800000,7,8.400000,29,8.400000,56.200000M13.400000,56.200000C13.400000,31.300000,74.500000,11.200000,150,11.200000L150,11.200000C225.400000,11.200000,286.600000,31.300000,286.600000,56.200000L286.600000,56.200000C286.600000,81.100000,225.500000,101.200000,150,101.200000L150,101.200000C74.600000,101.200000,13.400000,81.100000,13.400000,56.200000" opacity="0" fill="url(#eROVXUWT9ve30-fill)" stroke="none" stroke-width="1"/><path id="eROVXUWT9ve31" d="M230.100000,39.500000C229.500000,39.500000,229.300000,39.600000,229,40.100000L229,40.100000C228.100000,41.800000,217.500000,57.600000,215.600000,60.700000L215.600000,60.700000C215.300000,61.200000,214.900000,61.100000,214.800000,60.600000L214.800000,60.600000C214.600000,58.800000,213,56.700000,210.500000,55.700000L210.500000,55.700000C208.600000,54.900000,206.700000,54.800000,204.800000,55L204.800000,55C201.300000,55.500000,198.200000,57.300000,195.500000,59.400000L195.500000,59.400000C191.400000,62.500000,187.800000,66.600000,183.300000,69.600000L183.300000,69.600000C180.800000,71.200000,177.400000,72.700000,175.100000,70.500000L175.100000,70.500000C173,68.600000,173.300000,64.300000,176.400000,61L176.400000,61C176.700000,60.700000,177.100000,60.900000,177.100000,61.300000L177.100000,61.300000C176.800000,62.800000,177.200000,64.300000,178.300000,65.300000L178.300000,65.300000C179.700000,66.500000,181.700000,66.700000,183.400000,65.900000L183.400000,65.900000C185.400000,64.900000,186.600000,63,186.900000,60.800000L186.900000,60.800000C187.400000,57.400000,184.800000,54.500000,181.600000,54.200000L181.600000,54.200000C179,54,176.400000,54.900000,174,57L174,57C172.800000,58,172.100000,58.800000,171,60.300000L171,60.300000C170.700000,60.700000,170.300000,60.700000,170.400000,60.200000L170.400000,60.200000C170.500000,55.900000,168.700000,53.500000,165.200000,53.400000L165.200000,53.400000C162.400000,53.300000,159.500000,54.800000,157.200000,56.700000L157.200000,56.700000C154.700000,58.700000,152.500000,61.400000,150.100000,63.900000L150.100000,63.900000C149.800000,64.200000,149.500000,64.200000,149.500000,63.600000L149.500000,63.600000C149.400000,60.700000,148.700000,58,147.400000,56L147.400000,56C146.900000,55.300000,145.900000,55,145.100000,55.400000L145.100000,55.400000C144.700000,55.600000,143.400000,56.200000,142.400000,57L142.400000,57C141.900000,57.400000,141.700000,58,141.900000,58.700000L141.900000,58.700000C143.200000,63,142.900000,67.800000,141.200000,71.900000L141.200000,71.900000C139.600000,75.700000,136.500000,79,132.900000,80.200000L132.900000,80.200000C130.500000,81,128,80.600000,126.500000,78.500000L126.500000,78.500000C124.400000,75.600000,125.200000,70.500000,128.400000,66.200000L128.400000,66.200000C131.200000,62.500000,135.200000,60.100000,139.200000,58.600000L139.200000,58.600000C139.700000,58.400000,139.800000,58.100000,139.600000,57.700000L139.600000,57.700000C139.400000,57,139,56.100000,138.900000,55.700000L138.900000,55.700000C138.500000,54.700000,137.500000,54.600000,136.200000,54.700000L136.200000,54.700000C133.300000,55,130.700000,56,128,57.400000L128,57.400000C121.200000,61,117.800000,68.100000,116.300000,71.900000L116.300000,71.900000C115.600000,73.700000,115,74.800000,114.200000,75.800000L114.200000,75.800000C113.100000,77.200000,111.800000,78.400000,109.300000,80.500000L109.300000,80.500000C109.100000,80.700000,108.900000,81.100000,109.100000,81.500000L109.100000,81.500000C109.400000,82,110.600000,83.800000,111,84L111,84C111.400000,84.200000,111.900000,83.900000,112.100000,83.800000L112.100000,83.800000C113.800000,82.600000,115.900000,80.800000,116.900000,79.500000L116.900000,79.500000C117.200000,79.100000,117.600000,79.300000,117.800000,79.900000L117.800000,79.900000C118.700000,83.300000,121.200000,86,124.600000,87.200000L124.600000,87.200000C130.800000,89.300000,137.300000,86.300000,142.200000,81L142.200000,81C145.300000,77.600000,146.400000,75.500000,147.600000,74L147.600000,74C149.600000,71.500000,153.600000,65.900000,158.300000,62.300000L158.300000,62.300000C160,61,162.100000,60,163.100000,60.600000L163.100000,60.600000C163.900000,61.100000,164.200000,62.400000,162.900000,64.800000L162.900000,64.800000C158.100000,73.600000,151,84,149.700000,86.500000L149.700000,86.500000C149.500000,86.900000,149.700000,87.300000,150.100000,87.300000L150.100000,87.300000C152.600000,87.300000,155.100000,87.300000,157.400000,87.300000L157.400000,87.300000C157.800000,87.300000,158,87.100000,158.100000,86.800000L158.100000,86.800000C161.800000,81,165.300000,75.500000,169,69.800000L169,69.800000C169.200000,69.500000,169.400000,69.700000,169.400000,69.900000L169.400000,69.900000C169.500000,71.200000,169.800000,73,170.600000,74.200000L170.600000,74.200000C172,76.400000,174,77.300000,176.200000,77.400000L176.200000,77.400000C178,77.400000,178.900000,77.200000,180.800000,76.400000L180.800000,76.400000C182.400000,75.800000,183.600000,75.100000,184.600000,74.400000L184.600000,74.400000C185.200000,74,185.300000,74.700000,185.200000,74.800000L185.200000,74.800000C184.300000,79.400000,185.400000,84.900000,190,87.100000L190,87.100000C195.500000,89.800000,201.500000,86,205,82.600000L205,82.600000C205.300000,82.300000,205.700000,82.300000,205.700000,83L205.700000,83C205.800000,84.300000,206.400000,85.900000,207.400000,87L207.400000,87C210.300000,89.900000,216.200000,88.800000,222,84.200000L222,84.200000C225.800000,81.300000,229.700000,77.200000,233.300000,72.800000L233.300000,72.800000C233.400000,72.600000,233.500000,72.400000,233.300000,72.100000L233.300000,72.100000C232.800000,71.500000,232,70.900000,231.400000,70.400000L231.400000,70.400000C231.200000,70.200000,230.800000,70.300000,230.600000,70.400000L230.600000,70.400000C226.900000,73.900000,223.700000,77.800000,218.900000,81.100000L218.900000,81.100000C217.300000,82.200000,214.700000,83.100000,213.600000,81.600000L213.600000,81.600000C213.200000,81,213.200000,80.200000,213.600000,79.100000L213.600000,79.100000C215,75.600000,237,42.200000,238.100000,40.200000L238.100000,40.200000C238.300000,39.900000,238.100000,39.600000,237.700000,39.600000L237.700000,39.600000C235.400000,39.500000,232.400000,39.500000,230.100000,39.500000M195.300000,80.600000C194.200000,80,193.700000,78.400000,193.700000,77.200000L193.700000,77.200000C193.800000,73.600000,195.400000,69.900000,198.300000,66.300000L198.300000,66.300000C201.900000,61.900000,205.900000,59.600000,208.500000,60.800000L208.500000,60.800000C211.200000,62.100000,210.300000,65.200000,209.100000,67.700000L209.100000,67.700000C209,67.900000,209,68.100000,209.100000,68.200000L209.100000,68.200000C209.100000,68.500000,209.500000,68.700000,209.800000,68.800000L209.800000,68.800000C209.900000,68.800000,210,68.900000,209.900000,69.200000L209.900000,69.200000C209,71.200000,208.100000,72.400000,206.900000,74.100000L206.900000,74.100000C205.800000,75.700000,204.600000,77,203.100000,78.200000L203.100000,78.200000C201.400000,79.600000,199.200000,81.100000,197.100000,81.100000L197.100000,81.100000C196.500000,81.100000,195.800000,80.900000,195.300000,80.600000" opacity="0" fill="url(#eROVXUWT9ve31-fill)" stroke="none" stroke-width="1"/><path id="eROVXUWT9ve32" d="M113.300000,19.200000C111.200000,19.200000,109.100000,19.300000,107,19.500000L107,19.500000C93.500000,20.600000,80.700000,28.200000,80.600000,39.800000L80.600000,39.800000C80.600000,45.700000,84.800000,50.400000,91.200000,50.200000L91.200000,50.200000C98.800000,49.900000,105,43.900000,108.300000,36.200000L108.300000,36.200000C109.500000,33.300000,107.200000,32.100000,106.200000,33.800000L106.200000,33.800000C104.300000,36.800000,101.500000,39.100000,98.600000,40.600000L98.600000,40.600000C95,42.300000,91.200000,41.900000,90.100000,39L90.100000,39C88.500000,34.900000,91.900000,28.800000,99.600000,25.900000L99.600000,25.900000C110.700000,21.800000,122.400000,24.500000,133.600000,26.600000L133.600000,26.600000C133.800000,26.600000,134.400000,26.900000,133.800000,27.200000L133.800000,27.200000C131.800000,28.300000,129.800000,29.200000,126.700000,31.800000L126.700000,31.800000C124.500000,33.700000,121.600000,36.200000,119.400000,38.900000L119.400000,38.900000C117.200000,41.600000,115.600000,44,113.500000,46.700000L113.500000,46.700000C113.200000,47.100000,112.900000,47.100000,112.900000,47.100000L112.900000,47.100000C107.800000,48,102.900000,48.500000,98.300000,51.700000L98.300000,51.700000C97.400000,52.300000,97,53.500000,97.500000,54.400000L97.500000,54.400000C98,55.200000,99.200000,55.300000,100,54.700000L100,54.700000C102.800000,52.600000,105.700000,51.600000,109.100000,51.500000L109.100000,51.500000C109.200000,51.500000,109.300000,51.500000,109.400000,51.600000L109.400000,51.600000C109.400000,51.700000,109.400000,51.800000,109.400000,51.800000L109.400000,51.800000C104.400000,58.700000,103.200000,60.300000,99.400000,64.600000L99.400000,64.600000C97.500000,66.800000,95.600000,68.700000,93.500000,70.600000L93.500000,70.600000C85,78.500000,75.800000,78.400000,72.500000,73.400000L72.500000,73.400000C70.500000,70.400000,70.800000,67.300000,72.100000,64.700000L72.100000,64.700000C73.700000,61.500000,76.900000,59.200000,79.600000,57.800000L79.600000,57.800000C80.600000,57.300000,80.900000,56,79.900000,54.900000L79.900000,54.900000C79.300000,54.100000,77.700000,54,76.600000,54.200000L76.600000,54.200000C73.100000,54.800000,69,57.500000,66.500000,60.700000L66.500000,60.700000C63.800000,64.300000,62.400000,68.600000,62.800000,73.400000L62.800000,73.400000C63.600000,82.200000,70.800000,87.200000,79,87.200000L79,87.200000C85.500000,87.100000,91.700000,85.200000,99,77.700000L99,77.700000C105.900000,70.700000,112.200000,60.300000,118,50.600000L118,50.600000C118.200000,50.300000,118.300000,50.100000,119.200000,50L119.200000,50C122.900000,49.500000,128.300000,49,131.800000,48.800000L131.800000,48.800000C132.600000,48.800000,132.700000,48.800000,133,49.200000L133,49.200000C133.900000,50.300000,135.300000,51.300000,136.400000,51.900000L136.400000,51.900000C136.900000,52.200000,137.200000,52.300000,137.600000,52.300000L137.600000,52.300000C138.100000,52.300000,138.500000,52,138.800000,51.700000L138.800000,51.700000C139.200000,51.300000,139.300000,50.800000,139.100000,50.400000L139.100000,50.400000C138.900000,50,136.500000,48.700000,136.400000,48.200000L136.400000,48.200000C136.300000,47.900000,136.700000,47.800000,136.700000,47.800000L136.700000,47.800000C138.500000,47.200000,140.300000,46.100000,141.500000,43.900000L141.500000,43.900000C142.600000,41.800000,142.800000,38.900000,140.800000,37.400000L140.800000,37.400000C139,36,136.300000,36.200000,134.200000,38.200000L134.200000,38.200000C132.100000,40.100000,131.400000,42.800000,131.700000,45.200000L131.700000,45.200000C131.700000,45.600000,131.700000,45.800000,131.200000,45.800000L131.200000,45.800000C128,46.100000,124.900000,46.100000,121.400000,46.300000L121.400000,46.300000C121.200000,46.300000,121.100000,46.200000,121.200000,46L121.200000,46C125.200000,39.100000,131.100000,34.200000,137.700000,29.300000L137.700000,29.300000C138.100000,29,138,28.400000,138,27.800000L138,27.800000C149.900000,30.400000,161.300000,35.200000,173.600000,35.100000L173.600000,35.100000C178.700000,35.100000,183.600000,34.300000,188.200000,31.700000L188.200000,31.700000C192.300000,29.500000,194,27.400000,194.100000,25.300000L194.100000,25.300000C194.200000,23.800000,193.200000,22.900000,191.700000,23.200000L191.700000,23.200000C179.300000,26.100000,167.400000,26,155,24.500000L155,24.500000C140.800000,22.700000,127.300000,19.200000,113.300000,19.200000L113.300000,19.200000C113.300000,19.200000,113.300000,19.200000,113.300000,19.200000M134.700000,44.100000C134.500000,42.800000,134.900000,41,136.400000,39.800000L136.400000,39.800000C137.100000,39.200000,138.100000,39,138.600000,39.500000L138.600000,39.500000C139.300000,40.100000,138.900000,41.500000,138.300000,42.400000L138.300000,42.400000C137.600000,43.500000,136.300000,44.400000,135.200000,44.600000L135.200000,44.600000C135.200000,44.600000,135.100000,44.600000,135.100000,44.600000L135.100000,44.600000C135,44.700000,134.800000,44.600000,134.700000,44.100000" opacity="0" fill="url(#eROVXUWT9ve32-fill)" stroke="none" stroke-width="1"/></svg>